<?xml version="1.0" encoding="UTF-8"?>
<svg version="1.1" viewBox="0 0 120 120" xmlns="http://www.w3.org/2000/svg">
    <circle cx="60" cy="60" r="60" fill="#1c1f26"/>
    <g transform="matrix(1.1489 0 0 1.1489 -8.9367 -16.152)">
        <g transform="matrix(.6028 0 0 .6028 23.832 24.156)" stroke="#1c1f26">
            <path d="m26.645 19.76c-1.1819 0.0016-2.1223 0.52196-3.2033 1.5522-1.75 1.6677-3.7862 4.7431-7.2637 16.439-3.332 11.207-6.1653 21.474-6.1789 44.376a50 37.872 0 0 0 50.001 37.874 50 37.872 0 0 0 50.001-37.874c-0.0136-22.902-2.8469-33.169-6.1789-44.376-3.4775-11.696-5.5137-14.771-7.2637-16.439-1.0811-1.0303-2.0214-1.5507-3.2033-1.5522-3.5358-0.0047-13.019 6.3232-20.149 14.345a43.968 43.968 0 0 0-13.206-2.0407 43.968 43.968 0 0 0-13.176 2.0736c-7.1336-8.0372-16.638-14.382-20.179-14.378z"
                  fill="#fff" stroke-width="11.794" style="paint-order:stroke markers fill"/>
            <path transform="translate(-.62457 -.5)"
                  d="m46.334 67.795c-1.4378 3.9505-5.1929 6.5798-9.3969 6.5798s-7.9591-2.6293-9.3969-6.5798m47.374 0c1.4378 3.9505 5.1929 6.5798 9.3969 6.5798s7.9591-2.6293 9.3969-6.5798"
                  display="none" fill="none" stroke-linecap="round" stroke-width="5.9007"/>
            <path transform="translate(0 -1)"
                  d="m60 80.95h-4.4918l4.4918 2.2078 4.4918-2.2078zm0 2.2078-2.36e-4 5.1672s1.08e-4 3e-3 2.36e-4 9e-3c1.28e-4 -6e-3 2.36e-4 -9e-3 2.36e-4 -9e-3zm11.298 9.0637s-3.6865 4.7088-8.7727 1.0625c-2.3503-1.6849-2.5167-4.3106-2.5253-4.8572-0.00856 0.54659-0.17495 3.1723-2.5253 4.8572-5.0863 3.6463-8.7727-1.0625-8.7727-1.0625"
                  fill="none" stroke-linecap="round" stroke-linejoin="round" stroke-width="5.9"/>
        </g>
    </g>
    <g transform="matrix(1.0666 0 0 1.0922 -4.5918 -3.4121)" fill="#1c1f26" stroke-linecap="round"
       stroke-linejoin="round">
        <path d="m58.309 50v3.2454c0.60671-0.22102 1.412-0.34463 2.25-0.34536 0.83663-2.77e-4 1.6418 0.12197 2.25 0.34163v-3.2417z"
              stroke-width="2.7087" style="paint-order:markers fill stroke"/>
        <path d="m36.719 52.6v5.9c0 2.216 1.784 4 4 4h10.7c1.591 0 3.871-1.1301 5.2236-3.7408s2.3574-8.7592 2.3574-8.7592h-19.693c-1.5988 0-2.5861 0.95905-2.588 2.6zm47.681 0v5.9c0 2.216-1.784 4-4 4h-10.7c-1.591 0-3.871-1.1301-5.2236-3.7408s-2.3574-8.7592-2.3574-8.7592h19.693c1.5988 0 2.5861 0.95905 2.588 2.6z"
              stroke-width="3.891" style="paint-order:markers fill stroke"/>
    </g>
</svg>